#VRML V2.0 utf8

Shape{
    appearance Appearance {
        material  Material 	{
            diffuseColor 1.0 1.0 1.0
            specularColor 0.5019607843137255 0.5019607843137255 0.5019607843137255
            ambientIntensity 1.0
            transparency 0.0
            shininess 0.5
        }
    }
    geometry IndexedFaceSet {
        ccw TRUE
        solid FALSE
        coord DEF co Coordinate {
            point [
                -0.6496 -0.4331 0.0079, -0.909 -0.4331 0.0079, -0.909 -0.0526 0.0079, 0.041 -0.0386 0.0079, 0.0263 -0.0328 0.0079, 0.0599 0.053 0.0079, -0.0716 0.9091 0.0079, 0.6496 0.9091 0.0079, 0.6496 0.4331 0.0079, -0.0601 -0.0389 0.0079, -0.0601 -0.0519 0.0079, -0.0716 -0.0526 0.0079, 0.0033 -0.0519 0.0079, 0.0263 -0.0457 0.0079, 0.0033 0.0662 0.0079, 0.1689 -0.0389 0.0079, 0.1243 -0.0389 0.0079, 0.1689 0.0662 0.0079, 0.1848 0.0662 0.0079, 0.1848 -0.0519 0.0079, -0.0572 0.0662 0.0079, -0.0125 0.0014 0.0079, -0.0125 -0.0389 0.0079, -0.0543 0.0014 0.0079, -0.0543 0.0144 0.0079, -0.0572 0.0533 0.0079, -0.0125 0.0144 0.0079, -0.0125 0.0533 0.0079, 0.0567 -0.0403 0.0079, 0.0864 0.0406 0.0079, 0.0905 0.0358 0.0079, 0.0699 -0.0373 0.0079, 0.0937 0.0295 0.0079, 0.0963 0.0204 0.0079, 0.0984 0.0059 0.0079, 0.0956 -0.0084 0.0079, 0.0782 -0.0342 0.0079, 0.0616 -0.0526 0.0079, 0.1243 -0.0519 0.0079, 0.0682 -0.0509 0.0079, 0.0905 -0.0427 0.0079, 0.0793 0.0456 0.0079, 0.0914 -0.0208 0.0079, 0.0874 -0.0272 0.0079, 0.0838 -0.0308 0.0079, 0.0985 0.0487 0.0079, 0.0925 0.0547 0.0079, 0.0846 0.0595 0.0079, 0.054 0.0547 0.0079, 0.0397 0.0529 0.0079, 0.0263 0.0472 0.0079, 0.0263 0.063 0.0079, 0.04 0.0667 0.0079, 0.0991 -0.0369 0.0079, 0.1042 -0.0311 0.0079, 0.1081 -0.0236 0.0079, 0.1114 -0.0125 0.0079, 0.1142 0.005 0.0079, 0.1128 0.0117 0.0079, 0.1045 0.0388 0.0079, 0.0729 0.0636 0.0079, 0.0541 0.0677 0.0079, 0.909 0.4331 0.0079, 0.909 -0.0526 0.0079, 0.909 -0.4331 0.0079, 0.6496 -0.4331 0.0079, 0.6496 -0.909 0.0079, -0.0716 -0.909 0.0079, 0.0588 -0.0533 0.0079, 0.0516 -0.0526 0.0079, 0.0421 -0.0516 0.0079, -0.6496 -0.909 0.0079, -0.1152 -0.0519 0.0079, -0.0831 -0.0519 0.0079, -0.1868 -0.0519 0.0079, -0.1671 -0.0249 0.0079, -0.1607 -0.0346 0.0079, -0.909 0.4331 0.0079, -0.6496 0.4331 0.0079, -0.0831 0.0662 0.0079, -0.2934 -0.0519 0.0079, -0.2761 -0.0519 0.0079, -0.2315 0.0662 0.0079, -0.2473 0.0662 0.0079, -0.1499 0.0572 0.0079, -0.1246 0.0646 0.0079, -0.1165 0.0662 0.0079, -0.6496 0.9091 0.0079, -0.1545 -0.0404 0.0079, -0.1463 -0.0448 0.0079, -0.1343 -0.0485 0.0079, -0.2041 -0.0519 0.0079, -0.2154 -0.0187 0.0079, -0.2642 -0.0187 0.0079, -0.1595 0.0515 0.0079, -0.1653 0.0457 0.0079, -0.17 0.0381 0.0079, -0.1741 0.0268 0.0079, -0.1782 0.0087 0.0079, -0.1764 0.0016 0.0079, 0.9229 0.4331 0.0866, 0.9623 -0.4527 0.3098, 0.937 -0.4527 0.1665, 0.9646 -0.9258 0.3228, 0.9623 0.4528 0.3098, 0.937 0.4528 0.1665, 0.937 0.8071 0.1665, 0.9229 0.8842 0.0866, 0.9623 0.8071 0.3098, 0.9646 0.9258 0.3228, 0.9229 -0.4331 0.0866, 0.9229 -0.8841 0.0866, 0.937 -0.8071 0.1665, 0.9623 -0.8071 0.3098, -0.9229 -0.4331 0.0866, -0.9623 0.4528 0.3098, -0.937 0.4528 0.1665, -0.9623 -0.4527 0.3098, -0.937 -0.4527 0.1665, -0.937 -0.8071 0.1665, -0.9229 -0.8841 0.0866, -0.9623 -0.8071 0.3098, -0.9646 -0.9258 0.3228, -0.9646 0.9258 0.3228, -0.9229 0.4331 0.0866, -0.9229 0.8842 0.0866, -0.937 0.8071 0.1665, -0.9623 0.8071 0.3098, -0.9258 0.9646 0.3228, 0.9258 0.9646 0.3228, 0.6496 0.9229 0.0866, 0.8841 0.9229 0.0866, -0.6496 0.9229 0.0866, -0.8841 0.9229 0.0866, 0.6496 -0.9229 0.0866, 0.8841 -0.9229 0.0866, 0.9258 -0.9645 0.3228, -0.9258 -0.9645 0.3228, -0.6496 -0.9229 0.0866, -0.8841 -0.9229 0.0866, 0.9299 -0.8911 0.5197, 0.9299 -0.7115 0.5197, 0.909 -0.7323 0.6378, 0.909 0.8703 0.6378, -0.8703 0.9091 0.6378, 0.8703 0.9091 0.6378, -0.909 0.8703 0.6378, -0.909 -0.8702 0.6378, 0.8911 -0.9298 0.5197, 0.7115 -0.9298 0.5197, 0.7324 -0.909 0.6378, -0.8703 -0.909 0.6378, 0.7846 -0.3176 0.6378, 0.7375 -0.4154 0.6378, 0.8188 -0.2147 0.6378, 0.6784 0.5063 0.6378, 0.7375 0.4154 0.6378, 0.8395 0.1083 0.6378, 0.8465 0.0 0.6378, 0.8395 -0.1082 0.6378, 0.2408 -0.8115 0.6378, 0.3426 -0.774 0.6378, 0.4388 -0.7238 0.6378, -0.1884 0.8253 0.6378, -0.0813 0.8426 0.6378, 0.0271 0.846 0.6378, 0.1351 0.8356 0.6378, 0.2408 0.8115 0.6378, 0.3426 0.774 0.6378, 0.7846 0.3177 0.6378, 0.8188 0.2147 0.6378, 0.6784 -0.5063 0.6378, 0.6081 -0.5888 0.6378, 0.5278 -0.6618 0.6378, -0.0813 -0.8425 0.6378, 0.0271 -0.846 0.6378, 0.1351 -0.8356 0.6378, -0.1884 -0.8252 0.6378, -0.2923 -0.7944 0.6378, -0.3915 -0.7504 0.6378, 0.6081 0.5889 0.6378, 0.9077 0.8804 0.6378, 0.5278 0.6618 0.6378, -0.8447 0.0543 0.6378, -0.8447 -0.0542 0.6378, -0.8308 -0.1618 0.6378, -0.8308 0.1618 0.6378, -0.8033 0.2667 0.6378, -0.7626 0.3673 0.6378, 0.8897 0.9039 0.6378, 0.8852 0.9061 0.6378, -0.4843 0.6943 0.6378, -0.3915 0.7505 0.6378, -0.2923 0.7944 0.6378, 0.4388 0.7239 0.6378, 0.8804 0.9077 0.6378, -0.8897 -0.9039 0.6378, -0.8852 -0.9061 0.6378, -0.5691 -0.6266 0.6378, -0.7094 -0.4618 0.6378, -0.7626 -0.3672 0.6378, -0.8033 -0.2667 0.6378, -0.9039 0.8898 0.6378, -0.9061 0.8852 0.6378, -0.6445 0.5487 0.6378, 0.9061 0.8852 0.6378, 0.9039 0.8898 0.6378, 0.9011 0.894 0.6378, -0.9077 -0.8803 0.6378, -0.6445 -0.5487 0.6378, -0.4843 -0.6942 0.6378, -0.8804 -0.9077 0.6378, -0.8804 0.9077 0.6378, -0.5691 0.6266 0.6378, -0.7094 0.4618 0.6378, -0.9077 0.8804 0.6378, 0.8977 0.8978 0.6378, 0.8939 0.9011 0.6378, -0.9061 -0.8852 0.6378, -0.9039 -0.8897 0.6378, -0.9011 -0.8939 0.6378, -0.8852 0.9061 0.6378, -0.8897 0.9039 0.6378, -0.8939 0.9011 0.6378, -0.8977 -0.8977 0.6378, -0.8939 -0.9011 0.6378, -0.8977 0.8978 0.6378, -0.9011 0.894 0.6378
            ]
        }
        coordIndex [
            0,1,2,-1,3,4,5,-1,6,7,8,-1,9,10,11,-1,11,10,12,-1,13,12,4,-1,4,12,14,-1,15,16,17,-1,17,16,6,-1,17,6,18,-1,18,6,8,-1,18,8,19,-1,14,20,6,-1,21,22,23,-1,23,22,9,-1,23,9,24,-1,24,9,25,-1,24,25,26,-1,26,25,27,-1,3,5,28,-1,29,30,31,-1,31,30,32,-1,31,32,33,-1,33,34,31,-1,31,34,35,-1,31,35,36,-1,19,37,38,-1,38,37,39,-1,38,39,40,-1,28,5,31,-1,31,5,41,-1,31,41,29,-1,42,43,35,-1,35,43,44,-1,35,44,36,-1,45,46,6,-1,6,46,47,-1,48,5,49,-1,49,5,4,-1,49,4,50,-1,50,4,14,-1,50,14,51,-1,51,14,6,-1,51,6,52,-1,40,53,38,-1,38,53,54,-1,38,54,16,-1,16,54,55,-1,16,55,56,-1,56,57,16,-1,16,57,58,-1,16,58,6,-1,6,58,59,-1,6,59,45,-1,47,60,6,-1,6,60,61,-1,6,61,52,-1,8,62,19,-1,19,62,63,-1,19,63,37,-1,37,63,64,-1,37,64,65,-1,65,66,37,-1,37,66,67,-1,37,67,68,-1,68,67,69,-1,13,70,12,-1,12,70,69,-1,12,69,11,-1,11,69,67,-1,11,67,71,-1,72,73,11,-1,74,75,76,-1,2,77,78,-1,73,79,11,-1,11,79,6,-1,11,6,9,-1,9,6,20,-1,9,20,25,-1,80,81,11,-1,82,83,78,-1,78,83,80,-1,78,80,2,-1,2,80,11,-1,2,11,0,-1,0,11,71,-1,84,82,85,-1,85,82,86,-1,78,87,82,-1,82,87,6,-1,82,6,86,-1,86,6,79,-1,76,88,74,-1,74,88,89,-1,74,89,90,-1,90,72,74,-1,74,72,11,-1,74,11,91,-1,91,11,81,-1,91,81,92,-1,92,81,93,-1,84,94,82,-1,82,94,95,-1,82,95,96,-1,96,97,82,-1,82,97,98,-1,82,98,74,-1,74,98,99,-1,74,99,75,-1,63,62,100,-1,101,102,63,-1,103,101,104,-1,104,101,63,-1,104,63,105,-1,105,63,100,-1,105,100,106,-1,106,100,107,-1,106,107,108,-1,108,107,109,-1,108,109,104,-1,104,109,103,-1,64,63,110,-1,110,63,102,-1,110,102,111,-1,111,102,112,-1,111,112,103,-1,103,112,113,-1,103,113,101,-1,2,1,114,-1,115,116,117,-1,117,116,2,-1,117,2,118,-1,118,2,114,-1,118,114,119,-1,119,114,120,-1,119,120,121,-1,121,120,122,-1,121,122,117,-1,117,122,123,-1,117,123,115,-1,77,2,124,-1,124,2,116,-1,124,116,125,-1,125,116,126,-1,125,126,123,-1,123,126,127,-1,123,127,115,-1,128,129,130,-1,130,129,131,-1,6,87,132,-1,133,128,132,-1,132,128,130,-1,132,130,6,-1,6,130,7,-1,134,135,136,-1,136,137,138,-1,138,137,139,-1,138,71,67,-1,136,138,134,-1,134,138,67,-1,134,67,66,-1,140,103,141,-1,141,103,109,-1,141,109,142,-1,142,109,143,-1,144,145,128,-1,128,145,129,-1,123,122,146,-1,146,122,147,-1,136,148,149,-1,150,151,149,-1,149,151,137,-1,149,137,136,-1,152,153,142,-1,152,142,154,-1,155,156,143,-1,143,157,158,-1,143,158,142,-1,142,158,159,-1,142,159,154,-1,160,150,161,-1,161,150,162,-1,163,164,144,-1,144,164,165,-1,144,165,145,-1,165,166,145,-1,145,166,167,-1,145,167,168,-1,156,169,143,-1,143,169,170,-1,143,170,157,-1,153,171,142,-1,142,171,172,-1,142,172,150,-1,150,172,173,-1,150,173,162,-1,174,151,175,-1,175,151,150,-1,175,150,176,-1,176,150,160,-1,174,177,151,-1,151,177,178,-1,151,178,179,-1,155,143,180,-1,180,143,181,-1,180,181,182,-1,183,146,184,-1,184,146,147,-1,184,147,185,-1,183,186,146,-1,146,186,187,-1,146,187,188,-1,189,190,182,-1,191,192,144,-1,144,192,193,-1,144,193,163,-1,168,194,145,-1,145,194,182,-1,145,182,195,-1,195,182,190,-1,196,197,198,-1,199,200,147,-1,147,200,201,-1,147,201,185,-1,202,203,204,-1,181,205,182,-1,182,205,206,-1,182,206,207,-1,208,198,147,-1,147,198,209,-1,147,209,199,-1,179,210,151,-1,151,210,198,-1,151,198,211,-1,211,198,197,-1,212,204,144,-1,144,204,213,-1,144,213,191,-1,188,214,146,-1,146,214,204,-1,146,204,215,-1,215,204,203,-1,207,216,182,-1,182,216,217,-1,182,217,189,-1,208,218,198,-1,198,218,219,-1,198,219,220,-1,212,221,204,-1,204,221,222,-1,204,222,223,-1,220,224,198,-1,198,224,225,-1,198,225,196,-1,223,226,204,-1,204,226,227,-1,204,227,202,-1,
        ]
    }
}
Shape{
    appearance Appearance {
        material  Material 	{
            diffuseColor 1.0 1.0 0.0
            specularColor 0.5019607843137255 0.5019607843137255 0.0
            ambientIntensity 0.886
            transparency 0.0
            shininess 0.5
        }
    }
    geometry IndexedFaceSet {
        ccw TRUE
        solid FALSE
        coord DEF co Coordinate {
            point [
                0.8465 0.0 0.5984, 0.8465 0.0 0.6378, 0.8395 0.1083 0.5984, 0.8395 0.1083 0.6378, 0.8188 0.2147 0.5984, 0.8188 0.2147 0.6378, 0.7846 0.3177 0.5984, 0.7846 0.3177 0.6378, 0.7375 0.4154 0.5984, 0.7375 0.4154 0.6378, 0.6784 0.5063 0.5984, 0.6784 0.5063 0.6378, 0.6081 0.5889 0.5984, 0.6081 0.5889 0.6378, 0.5278 0.6618 0.5984, 0.5278 0.6618 0.6378, 0.4388 0.7239 0.5984, 0.4388 0.7239 0.6378, 0.3426 0.774 0.5984, 0.3426 0.774 0.6378, 0.2408 0.8115 0.5984, 0.2408 0.8115 0.6378, 0.1351 0.8356 0.5984, 0.1351 0.8356 0.6378, 0.0271 0.846 0.5984, 0.0271 0.846 0.6378, -0.0813 0.8426 0.5984, -0.0813 0.8426 0.6378, -0.1884 0.8253 0.5984, -0.1884 0.8253 0.6378, -0.2923 0.7944 0.5984, -0.2923 0.7944 0.6378, -0.3915 0.7505 0.5984, -0.3915 0.7505 0.6378, -0.4843 0.6943 0.5984, -0.4843 0.6943 0.6378, -0.5691 0.6266 0.5984, -0.5691 0.6266 0.6378, -0.6445 0.5487 0.5984, -0.6445 0.5487 0.6378, -0.7094 0.4618 0.5984, -0.7094 0.4618 0.6378, -0.7626 0.3673 0.5984, -0.7626 0.3673 0.6378, -0.8033 0.2667 0.5984, -0.8033 0.2667 0.6378, -0.8308 0.1618 0.5984, -0.8308 0.1618 0.6378, -0.8447 0.0543 0.5984, -0.8447 0.0543 0.6378, -0.8447 -0.0542 0.5984, -0.8447 -0.0542 0.6378, -0.8308 -0.1618 0.5984, -0.8308 -0.1618 0.6378, -0.8033 -0.2667 0.5984, -0.8033 -0.2667 0.6378, -0.7626 -0.3672 0.5984, -0.7626 -0.3672 0.6378, -0.7094 -0.4618 0.5984, -0.7094 -0.4618 0.6378, -0.6445 -0.5487 0.5984, -0.6445 -0.5487 0.6378, -0.5691 -0.6266 0.5984, -0.5691 -0.6266 0.6378, -0.4843 -0.6942 0.5984, -0.4843 -0.6942 0.6378, -0.3915 -0.7504 0.5984, -0.3915 -0.7504 0.6378, -0.2923 -0.7944 0.5984, -0.2923 -0.7944 0.6378, -0.1884 -0.8252 0.5984, -0.1884 -0.8252 0.6378, -0.0813 -0.8425 0.5984, -0.0813 -0.8425 0.6378, 0.0271 -0.846 0.5984, 0.0271 -0.846 0.6378, 0.1351 -0.8356 0.5984, 0.1351 -0.8356 0.6378, 0.2408 -0.8115 0.5984, 0.2408 -0.8115 0.6378, 0.3426 -0.774 0.5984, 0.3426 -0.774 0.6378, 0.4388 -0.7238 0.5984, 0.4388 -0.7238 0.6378, 0.5278 -0.6618 0.5984, 0.5278 -0.6618 0.6378, 0.6081 -0.5888 0.5984, 0.6081 -0.5888 0.6378, 0.6784 -0.5063 0.5984, 0.6784 -0.5063 0.6378, 0.7375 -0.4154 0.5984, 0.7375 -0.4154 0.6378, 0.7846 -0.3176 0.5984, 0.7846 -0.3176 0.6378, 0.8188 -0.2147 0.5984, 0.8188 -0.2147 0.6378, 0.8395 -0.1082 0.5984, 0.8395 -0.1082 0.6378, 0.0 0.0 0.5984
            ]
        }
        coordIndex [
            0,1,2,-1,2,1,3,-1,2,3,4,-1,4,3,5,-1,4,5,6,-1,6,5,7,-1,6,7,8,-1,8,7,9,-1,8,9,10,-1,10,9,11,-1,10,11,12,-1,12,11,13,-1,12,13,14,-1,14,13,15,-1,14,15,16,-1,16,15,17,-1,16,17,18,-1,18,17,19,-1,18,19,20,-1,20,19,21,-1,20,21,22,-1,22,21,23,-1,22,23,24,-1,24,23,25,-1,24,25,26,-1,26,25,27,-1,26,27,28,-1,28,27,29,-1,28,29,30,-1,30,29,31,-1,30,31,32,-1,32,31,33,-1,32,33,34,-1,34,33,35,-1,34,35,36,-1,36,35,37,-1,36,37,38,-1,38,37,39,-1,38,39,40,-1,40,39,41,-1,40,41,42,-1,42,41,43,-1,42,43,44,-1,44,43,45,-1,44,45,46,-1,46,45,47,-1,46,47,48,-1,48,47,49,-1,48,49,50,-1,50,49,51,-1,50,51,52,-1,52,51,53,-1,52,53,54,-1,54,53,55,-1,54,55,56,-1,56,55,57,-1,56,57,58,-1,58,57,59,-1,58,59,60,-1,60,59,61,-1,60,61,62,-1,62,61,63,-1,62,63,64,-1,64,63,65,-1,64,65,66,-1,66,65,67,-1,66,67,68,-1,68,67,69,-1,68,69,70,-1,70,69,71,-1,70,71,72,-1,72,71,73,-1,72,73,74,-1,74,73,75,-1,74,75,76,-1,76,75,77,-1,76,77,78,-1,78,77,79,-1,78,79,80,-1,80,79,81,-1,80,81,82,-1,82,81,83,-1,82,83,84,-1,84,83,85,-1,84,85,86,-1,86,85,87,-1,86,87,88,-1,88,87,89,-1,88,89,90,-1,90,89,91,-1,90,91,92,-1,92,91,93,-1,92,93,94,-1,94,93,95,-1,94,95,96,-1,96,95,97,-1,96,97,0,-1,0,97,1,-1,0,2,98,-1,92,94,98,-1,98,94,96,-1,98,96,0,-1,86,88,98,-1,98,88,90,-1,98,90,92,-1,80,82,98,-1,98,82,84,-1,98,84,86,-1,74,76,98,-1,98,76,78,-1,98,78,80,-1,68,70,98,-1,98,70,72,-1,98,72,74,-1,62,64,98,-1,98,64,66,-1,98,66,68,-1,56,58,98,-1,98,58,60,-1,98,60,62,-1,50,52,98,-1,98,52,54,-1,98,54,56,-1,44,46,98,-1,98,46,48,-1,98,48,50,-1,38,40,98,-1,98,40,42,-1,98,42,44,-1,32,34,98,-1,98,34,36,-1,98,36,38,-1,26,28,98,-1,98,28,30,-1,98,30,32,-1,20,22,98,-1,98,22,24,-1,98,24,26,-1,14,16,98,-1,98,16,18,-1,98,18,20,-1,8,10,98,-1,98,10,12,-1,98,12,14,-1,2,4,98,-1,98,4,6,-1,98,6,8,-1,
        ]
    }
}
Shape{
    appearance Appearance {
        material  Material 	{
            diffuseColor 1.0 1.0 1.0
            specularColor 0.5019607843137255 0.5019607843137255 0.5019607843137255
            ambientIntensity 1.0
            transparency 0.0
            shininess 0.5
        }
    }
    geometry IndexedFaceSet {
        ccw TRUE
        solid FALSE
        coord DEF co Coordinate {
            point [
                0.6496 0.4331 0.0866, 0.6496 0.4331 0.0079, 0.6496 0.9229 0.0866, 0.6496 0.9091 0.0079, 0.909 0.4331 0.0079, 0.9229 0.4331 0.0866, 0.8841 0.9229 0.0866, 0.9229 0.8842 0.0866, 0.9178 0.9036 0.0866, 0.92 0.8991 0.0866, 0.9036 0.9178 0.0866, 0.8991 0.92 0.0866, 0.8943 0.9216 0.0866, 0.9216 0.8943 0.0866, 0.915 0.9078 0.0866, 0.9078 0.915 0.0866, 0.9116 0.9116 0.0866, 0.6496 -0.4331 0.0079, 0.909 -0.4331 0.0079, 0.6496 -0.4331 0.0866, 0.9229 -0.4331 0.0866, 0.6496 -0.9229 0.0866, 0.6496 -0.909 0.0079, 0.8841 -0.9229 0.0866, 0.9229 -0.8841 0.0866, 0.9036 -0.9177 0.0866, 0.8991 -0.92 0.0866, 0.9178 -0.9036 0.0866, 0.92 -0.899 0.0866, 0.9216 -0.8942 0.0866, 0.8943 -0.9216 0.0866, 0.9078 -0.9149 0.0866, 0.915 -0.9078 0.0866, 0.9116 -0.9116 0.0866, -0.6496 -0.4331 0.0866, -0.6496 -0.4331 0.0079, -0.6496 -0.9229 0.0866, -0.6496 -0.909 0.0079, -0.909 -0.4331 0.0079, -0.9229 -0.4331 0.0866, -0.9229 -0.8841 0.0866, -0.8841 -0.9229 0.0866, -0.8943 -0.9216 0.0866, -0.8991 -0.92 0.0866, -0.9116 -0.9116 0.0866, -0.915 -0.9078 0.0866, -0.9078 -0.9149 0.0866, -0.9178 -0.9036 0.0866, -0.9036 -0.9177 0.0866, -0.92 -0.899 0.0866, -0.9216 -0.8942 0.0866, -0.6496 0.4331 0.0079, -0.909 0.4331 0.0079, -0.6496 0.4331 0.0866, -0.9229 0.4331 0.0866, -0.6496 0.9229 0.0866, -0.6496 0.9091 0.0079, -0.9229 0.8842 0.0866, -0.8841 0.9229 0.0866, -0.9036 0.9178 0.0866, -0.8991 0.92 0.0866, -0.92 0.8991 0.0866, -0.9216 0.8943 0.0866, -0.8943 0.9216 0.0866, -0.9178 0.9036 0.0866, -0.915 0.9078 0.0866, -0.9078 0.915 0.0866, -0.9116 0.9116 0.0866
            ]
        }
        coordIndex [
            0,1,2,-1,2,1,3,-1,1,0,4,-1,4,0,5,-1,0,2,5,-1,5,2,6,-1,5,6,7,-1,8,9,10,-1,10,9,11,-1,6,12,7,-1,7,12,11,-1,7,11,13,-1,13,11,9,-1,8,10,14,-1,14,10,15,-1,14,15,16,-1,17,18,19,-1,19,18,20,-1,19,21,17,-1,17,21,22,-1,21,19,23,-1,23,19,20,-1,23,20,24,-1,25,26,27,-1,27,26,28,-1,24,29,23,-1,23,29,28,-1,23,28,30,-1,30,28,26,-1,25,27,31,-1,31,27,32,-1,31,32,33,-1,34,35,36,-1,36,35,37,-1,35,34,38,-1,38,34,39,-1,39,34,40,-1,40,34,36,-1,36,41,40,-1,40,41,42,-1,40,42,43,-1,44,45,46,-1,46,45,47,-1,46,47,48,-1,48,47,49,-1,48,49,43,-1,43,49,50,-1,43,50,40,-1,51,52,53,-1,53,52,54,-1,53,55,51,-1,51,55,56,-1,53,54,55,-1,55,54,57,-1,55,57,58,-1,59,60,61,-1,57,62,58,-1,58,62,61,-1,58,61,63,-1,63,61,60,-1,61,64,59,-1,59,64,65,-1,59,65,66,-1,66,65,67,-1,
        ]
    }
}
Shape{
    appearance Appearance {
        material  Material 	{
            diffuseColor 0.7529411764705882 0.7529411764705882 0.7529411764705882
            specularColor 0.3764705882352941 0.3764705882352941 0.3764705882352941
            ambientIntensity 0.7529
            transparency 0.0
            shininess 0.5
        }
    }
    geometry IndexedFaceSet {
        ccw TRUE
        solid FALSE
        coord DEF co Coordinate {
            point [
                -0.6693 0.8071 0.0472, -0.9252 0.8071 0.0472, -0.6693 0.4528 0.0472, -0.9252 0.4528 0.0472, -0.6693 0.8071 0.0, -0.6693 0.4528 0.0, -0.9252 0.8071 0.0, -0.9252 0.4528 0.0, -0.9383 0.4528 0.0015, -0.9383 0.8071 0.0015, -0.9508 0.4528 0.0058, -0.9508 0.8071 0.0058, -0.962 0.4528 0.0129, -0.962 0.8071 0.0129, -0.9714 0.4528 0.0222, -0.9714 0.8071 0.0222, -0.9784 0.4528 0.0334, -0.9784 0.8071 0.0334, -0.9828 0.4528 0.0459, -0.9828 0.8071 0.0459, -0.9843 0.4528 0.0591, -0.9843 0.8071 0.0591, -0.9843 0.8071 0.2638, -0.9843 0.4528 0.2638, -0.9828 0.4528 0.2768, -0.9828 0.8071 0.2768, -0.9785 0.4528 0.2893, -0.9785 0.8071 0.2893, -0.9715 0.4528 0.3004, -0.9715 0.8071 0.3004, -0.9623 0.4528 0.3098, -0.9623 0.8071 0.3098, -0.937 0.4528 0.0591, -0.937 0.8071 0.0591, -0.937 0.4528 0.1665, -0.937 0.8071 0.1665, -0.9367 0.8071 0.0564, -0.9367 0.4528 0.0564, -0.9358 0.8071 0.0539, -0.9358 0.4528 0.0539, -0.9344 0.8071 0.0517, -0.9344 0.4528 0.0517, -0.9326 0.8071 0.0498, -0.9326 0.4528 0.0498, -0.9303 0.8071 0.0484, -0.9303 0.4528 0.0484, -0.9278 0.8071 0.0475, -0.9278 0.4528 0.0475, -0.9252 -0.8071 0.0472, -0.6693 -0.8071 0.0472, -0.9252 -0.4527 0.0472, -0.6693 -0.4527 0.0472, -0.9278 -0.8071 0.0475, -0.9278 -0.4527 0.0475, -0.9303 -0.8071 0.0484, -0.9303 -0.4527 0.0484, -0.9326 -0.8071 0.0498, -0.9326 -0.4527 0.0498, -0.9344 -0.8071 0.0517, -0.9344 -0.4527 0.0517, -0.9358 -0.8071 0.0539, -0.9358 -0.4527 0.0539, -0.9367 -0.8071 0.0564, -0.9367 -0.4527 0.0564, -0.937 -0.8071 0.0591, -0.937 -0.4527 0.0591, -0.937 -0.8071 0.1665, -0.937 -0.4527 0.1665, -0.9623 -0.8071 0.3098, -0.9623 -0.4527 0.3098, -0.9715 -0.4527 0.3004, -0.9715 -0.8071 0.3004, -0.9785 -0.4527 0.2893, -0.9785 -0.8071 0.2893, -0.9828 -0.4527 0.2768, -0.9828 -0.8071 0.2768, -0.9843 -0.4527 0.2638, -0.9843 -0.8071 0.2638, -0.9843 -0.8071 0.0591, -0.9843 -0.4527 0.0591, -0.9828 -0.4527 0.0459, -0.9828 -0.8071 0.0459, -0.9784 -0.4527 0.0334, -0.9784 -0.8071 0.0334, -0.9714 -0.4527 0.0222, -0.9714 -0.8071 0.0222, -0.962 -0.4527 0.0129, -0.962 -0.8071 0.0129, -0.9508 -0.4527 0.0058, -0.9508 -0.8071 0.0058, -0.9383 -0.4527 0.0015, -0.9383 -0.8071 0.0015, -0.9252 -0.4527 0.0, -0.9252 -0.8071 0.0, -0.6693 -0.8071 0.0, -0.6693 -0.4527 0.0, 0.6693 -0.8071 0.0472, 0.9252 -0.8071 0.0472, 0.6693 -0.4527 0.0472, 0.9252 -0.4527 0.0472, 0.6693 -0.8071 0.0, 0.6693 -0.4527 0.0, 0.9252 -0.8071 0.0, 0.9252 -0.4527 0.0, 0.9383 -0.4527 0.0015, 0.9383 -0.8071 0.0015, 0.9508 -0.4527 0.0058, 0.9508 -0.8071 0.0058, 0.962 -0.4527 0.0129, 0.962 -0.8071 0.0129, 0.9714 -0.4527 0.0222, 0.9714 -0.8071 0.0222, 0.9784 -0.4527 0.0334, 0.9784 -0.8071 0.0334, 0.9828 -0.4527 0.0459, 0.9828 -0.8071 0.0459, 0.9843 -0.4527 0.0591, 0.9843 -0.8071 0.0591, 0.9843 -0.8071 0.2638, 0.9843 -0.4527 0.2638, 0.9828 -0.4527 0.2768, 0.9828 -0.8071 0.2768, 0.9785 -0.4527 0.2893, 0.9785 -0.8071 0.2893, 0.9715 -0.4527 0.3004, 0.9715 -0.8071 0.3004, 0.9623 -0.4527 0.3098, 0.9623 -0.8071 0.3098, 0.937 -0.4527 0.0591, 0.937 -0.8071 0.0591, 0.937 -0.4527 0.1665, 0.937 -0.8071 0.1665, 0.9367 -0.8071 0.0564, 0.9367 -0.4527 0.0564, 0.9358 -0.8071 0.0539, 0.9358 -0.4527 0.0539, 0.9344 -0.8071 0.0517, 0.9344 -0.4527 0.0517, 0.9326 -0.8071 0.0498, 0.9326 -0.4527 0.0498, 0.9303 -0.8071 0.0484, 0.9303 -0.4527 0.0484, 0.9278 -0.8071 0.0475, 0.9278 -0.4527 0.0475, 0.9252 0.8071 0.0472, 0.6693 0.8071 0.0472, 0.9252 0.4528 0.0472, 0.6693 0.4528 0.0472, 0.9278 0.8071 0.0475, 0.9278 0.4528 0.0475, 0.9303 0.8071 0.0484, 0.9303 0.4528 0.0484, 0.9326 0.8071 0.0498, 0.9326 0.4528 0.0498, 0.9344 0.8071 0.0517, 0.9344 0.4528 0.0517, 0.9358 0.8071 0.0539, 0.9358 0.4528 0.0539, 0.9367 0.8071 0.0564, 0.9367 0.4528 0.0564, 0.937 0.8071 0.0591, 0.937 0.4528 0.0591, 0.937 0.8071 0.1665, 0.937 0.4528 0.1665, 0.9623 0.8071 0.3098, 0.9623 0.4528 0.3098, 0.9715 0.4528 0.3004, 0.9715 0.8071 0.3004, 0.9785 0.4528 0.2893, 0.9785 0.8071 0.2893, 0.9828 0.4528 0.2768, 0.9828 0.8071 0.2768, 0.9843 0.4528 0.2638, 0.9843 0.8071 0.2638, 0.9843 0.8071 0.0591, 0.9843 0.4528 0.0591, 0.9828 0.4528 0.0459, 0.9828 0.8071 0.0459, 0.9784 0.4528 0.0334, 0.9784 0.8071 0.0334, 0.9714 0.4528 0.0222, 0.9714 0.8071 0.0222, 0.962 0.4528 0.0129, 0.962 0.8071 0.0129, 0.9508 0.4528 0.0058, 0.9508 0.8071 0.0058, 0.9383 0.4528 0.0015, 0.9383 0.8071 0.0015, 0.9252 0.4528 0.0, 0.9252 0.8071 0.0, 0.6693 0.8071 0.0, 0.6693 0.4528 0.0
            ]
        }
        coordIndex [
            0,1,2,-1,2,1,3,-1,4,0,5,-1,5,0,2,-1,6,4,7,-1,7,4,5,-1,6,7,8,-1,6,8,9,-1,9,8,10,-1,9,10,11,-1,11,10,12,-1,11,12,13,-1,13,12,14,-1,13,14,15,-1,15,14,16,-1,15,16,17,-1,17,16,18,-1,17,18,19,-1,19,18,20,-1,19,20,21,-1,22,21,23,-1,23,21,20,-1,22,23,24,-1,22,24,25,-1,25,24,26,-1,25,26,27,-1,27,26,28,-1,27,28,29,-1,29,28,30,-1,29,30,31,-1,32,33,34,-1,34,33,35,-1,33,32,36,-1,36,32,37,-1,36,37,38,-1,38,37,39,-1,38,39,40,-1,40,39,41,-1,40,41,42,-1,42,41,43,-1,42,43,44,-1,44,43,45,-1,44,45,46,-1,46,45,47,-1,46,47,1,-1,1,47,3,-1,0,4,1,-1,1,4,6,-1,1,6,46,-1,46,6,9,-1,46,9,44,-1,44,9,11,-1,44,11,42,-1,42,11,13,-1,42,13,40,-1,40,13,15,-1,40,15,38,-1,38,15,17,-1,38,17,36,-1,36,17,19,-1,36,19,33,-1,33,19,21,-1,33,21,35,-1,35,21,22,-1,35,22,25,-1,25,27,35,-1,35,27,29,-1,35,29,31,-1,26,34,28,-1,28,34,30,-1,5,2,7,-1,7,2,3,-1,7,3,8,-1,8,3,47,-1,8,47,10,-1,10,47,45,-1,10,45,12,-1,12,45,43,-1,12,43,14,-1,14,43,41,-1,14,41,16,-1,16,41,39,-1,16,39,18,-1,18,39,37,-1,18,37,20,-1,20,37,32,-1,20,32,23,-1,23,32,34,-1,23,34,24,-1,24,34,26,-1,48,49,50,-1,50,49,51,-1,48,50,52,-1,52,50,53,-1,52,53,54,-1,54,53,55,-1,54,55,56,-1,56,55,57,-1,56,57,58,-1,58,57,59,-1,58,59,60,-1,60,59,61,-1,60,61,62,-1,62,61,63,-1,62,63,64,-1,64,63,65,-1,66,64,67,-1,67,64,65,-1,68,69,70,-1,68,70,71,-1,71,70,72,-1,71,72,73,-1,73,72,74,-1,73,74,75,-1,75,74,76,-1,75,76,77,-1,78,77,79,-1,79,77,76,-1,78,79,80,-1,78,80,81,-1,81,80,82,-1,81,82,83,-1,83,82,84,-1,83,84,85,-1,85,84,86,-1,85,86,87,-1,87,86,88,-1,87,88,89,-1,89,88,90,-1,89,90,91,-1,91,90,92,-1,91,92,93,-1,94,93,95,-1,95,93,92,-1,49,94,51,-1,51,94,95,-1,73,66,71,-1,71,66,68,-1,94,49,93,-1,93,49,48,-1,93,48,91,-1,91,48,52,-1,91,52,89,-1,89,52,54,-1,89,54,87,-1,87,54,56,-1,87,56,85,-1,85,56,58,-1,85,58,83,-1,83,58,60,-1,83,60,81,-1,81,60,62,-1,81,62,78,-1,78,62,64,-1,78,64,77,-1,77,64,66,-1,77,66,75,-1,75,66,73,-1,51,95,50,-1,50,95,92,-1,50,92,53,-1,53,92,90,-1,53,90,55,-1,55,90,88,-1,55,88,57,-1,57,88,86,-1,57,86,59,-1,59,86,84,-1,59,84,61,-1,61,84,82,-1,61,82,63,-1,63,82,80,-1,63,80,65,-1,65,80,79,-1,65,79,67,-1,67,79,76,-1,67,76,74,-1,74,72,67,-1,67,72,70,-1,67,70,69,-1,96,97,98,-1,98,97,99,-1,100,96,101,-1,101,96,98,-1,102,100,103,-1,103,100,101,-1,102,103,104,-1,102,104,105,-1,105,104,106,-1,105,106,107,-1,107,106,108,-1,107,108,109,-1,109,108,110,-1,109,110,111,-1,111,110,112,-1,111,112,113,-1,113,112,114,-1,113,114,115,-1,115,114,116,-1,115,116,117,-1,118,117,119,-1,119,117,116,-1,118,119,120,-1,118,120,121,-1,121,120,122,-1,121,122,123,-1,123,122,124,-1,123,124,125,-1,125,124,126,-1,125,126,127,-1,128,129,130,-1,130,129,131,-1,129,128,132,-1,132,128,133,-1,132,133,134,-1,134,133,135,-1,134,135,136,-1,136,135,137,-1,136,137,138,-1,138,137,139,-1,138,139,140,-1,140,139,141,-1,140,141,142,-1,142,141,143,-1,142,143,97,-1,97,143,99,-1,96,100,97,-1,97,100,102,-1,97,102,142,-1,142,102,105,-1,142,105,140,-1,140,105,107,-1,140,107,138,-1,138,107,109,-1,138,109,136,-1,136,109,111,-1,136,111,134,-1,134,111,113,-1,134,113,132,-1,132,113,115,-1,132,115,129,-1,129,115,117,-1,129,117,131,-1,131,117,118,-1,131,118,121,-1,121,123,131,-1,131,123,125,-1,131,125,127,-1,122,130,124,-1,124,130,126,-1,101,98,103,-1,103,98,99,-1,103,99,104,-1,104,99,143,-1,104,143,106,-1,106,143,141,-1,106,141,108,-1,108,141,139,-1,108,139,110,-1,110,139,137,-1,110,137,112,-1,112,137,135,-1,112,135,114,-1,114,135,133,-1,114,133,116,-1,116,133,128,-1,116,128,119,-1,119,128,130,-1,119,130,120,-1,120,130,122,-1,144,145,146,-1,146,145,147,-1,144,146,148,-1,148,146,149,-1,148,149,150,-1,150,149,151,-1,150,151,152,-1,152,151,153,-1,152,153,154,-1,154,153,155,-1,154,155,156,-1,156,155,157,-1,156,157,158,-1,158,157,159,-1,158,159,160,-1,160,159,161,-1,162,160,163,-1,163,160,161,-1,164,165,166,-1,164,166,167,-1,167,166,168,-1,167,168,169,-1,169,168,170,-1,169,170,171,-1,171,170,172,-1,171,172,173,-1,174,173,175,-1,175,173,172,-1,174,175,176,-1,174,176,177,-1,177,176,178,-1,177,178,179,-1,179,178,180,-1,179,180,181,-1,181,180,182,-1,181,182,183,-1,183,182,184,-1,183,184,185,-1,185,184,186,-1,185,186,187,-1,187,186,188,-1,187,188,189,-1,190,189,191,-1,191,189,188,-1,145,190,147,-1,147,190,191,-1,169,162,167,-1,167,162,164,-1,190,145,189,-1,189,145,144,-1,189,144,187,-1,187,144,148,-1,187,148,185,-1,185,148,150,-1,185,150,183,-1,183,150,152,-1,183,152,181,-1,181,152,154,-1,181,154,179,-1,179,154,156,-1,179,156,177,-1,177,156,158,-1,177,158,174,-1,174,158,160,-1,174,160,173,-1,173,160,162,-1,173,162,171,-1,171,162,169,-1,147,191,146,-1,146,191,188,-1,146,188,149,-1,149,188,186,-1,149,186,151,-1,151,186,184,-1,151,184,153,-1,153,184,182,-1,153,182,155,-1,155,182,180,-1,155,180,157,-1,157,180,178,-1,157,178,159,-1,159,178,176,-1,159,176,161,-1,161,176,175,-1,161,175,163,-1,163,175,172,-1,163,172,170,-1,170,168,163,-1,163,168,166,-1,163,166,165,-1,
        ]
    }
}
Shape{
    appearance Appearance {
        material  Material 	{
            diffuseColor 1.0 1.0 1.0
            specularColor 0.5019607843137255 0.5019607843137255 0.5019607843137255
            ambientIntensity 1.0
            transparency 0.0
            shininess 0.5
        }
    }
    geometry IndexedFaceSet {
        ccw TRUE
        solid FALSE
        coord DEF co Coordinate {
            point [
                0.9299 -0.7115 0.5197, 0.7115 -0.9298 0.5197, 0.9299 -0.8911 0.5197, 0.8911 -0.9298 0.5197, 0.9012 -0.9285 0.5197, 0.9269 -0.906 0.5197, 0.9285 -0.9012 0.5197, 0.906 -0.9269 0.5197, 0.9106 -0.9247 0.5197, 0.9247 -0.9105 0.5197, 0.9219 -0.9148 0.5197, 0.9148 -0.9219 0.5197, 0.9186 -0.9186 0.5197, 0.7324 -0.909 0.6378, 0.909 -0.7323 0.6378, -0.9646 0.9258 0.3228, -0.909 0.8703 0.6378, -0.9077 0.8804 0.6378, -0.9633 0.9359 0.3228, -0.9061 0.8852 0.6378, -0.9616 0.9407 0.3228, -0.9039 0.8898 0.6378, -0.9594 0.9453 0.3228, -0.9011 0.894 0.6378, -0.9566 0.9495 0.3228, -0.8977 0.8978 0.6378, -0.9533 0.9533 0.3228, -0.9495 0.9566 0.3228, -0.8939 0.9011 0.6378, -0.9453 0.9594 0.3228, -0.8897 0.9039 0.6378, -0.9407 0.9617 0.3228, -0.8852 0.9061 0.6378, -0.9359 0.9633 0.3228, -0.8804 0.9077 0.6378, -0.8703 0.9091 0.6378, -0.9258 0.9646 0.3228, -0.8841 0.9229 0.0866, -0.8943 0.9216 0.0866, -0.8991 0.92 0.0866, -0.9036 0.9178 0.0866, -0.9078 0.915 0.0866, -0.9116 0.9116 0.0866, -0.915 0.9078 0.0866, -0.9178 0.9036 0.0866, -0.92 0.8991 0.0866, -0.9216 0.8943 0.0866, -0.9229 0.8842 0.0866, 0.9258 0.9646 0.3228, 0.8703 0.9091 0.6378, 0.8804 0.9077 0.6378, 0.9359 0.9633 0.3228, 0.8852 0.9061 0.6378, 0.9407 0.9617 0.3228, 0.8897 0.9039 0.6378, 0.9453 0.9594 0.3228, 0.8939 0.9011 0.6378, 0.9495 0.9566 0.3228, 0.8977 0.8978 0.6378, 0.9533 0.9533 0.3228, 0.9566 0.9495 0.3228, 0.9011 0.894 0.6378, 0.9594 0.9453 0.3228, 0.9039 0.8898 0.6378, 0.9616 0.9407 0.3228, 0.9061 0.8852 0.6378, 0.9633 0.9359 0.3228, 0.9077 0.8804 0.6378, 0.909 0.8703 0.6378, 0.9646 0.9258 0.3228, 0.9229 0.8842 0.0866, 0.9216 0.8943 0.0866, 0.92 0.8991 0.0866, 0.9178 0.9036 0.0866, 0.915 0.9078 0.0866, 0.9116 0.9116 0.0866, 0.9078 0.915 0.0866, 0.9036 0.9178 0.0866, 0.8991 0.92 0.0866, 0.8943 0.9216 0.0866, 0.8841 0.9229 0.0866, 0.9646 -0.9258 0.3228, 0.9633 -0.9359 0.3228, 0.9616 -0.9407 0.3228, 0.9594 -0.9453 0.3228, 0.9566 -0.9495 0.3228, 0.9533 -0.9533 0.3228, 0.9495 -0.9566 0.3228, 0.9453 -0.9594 0.3228, 0.9407 -0.9616 0.3228, 0.9359 -0.9632 0.3228, 0.9258 -0.9645 0.3228, 0.8841 -0.9229 0.0866, 0.8943 -0.9216 0.0866, 0.8991 -0.92 0.0866, 0.9036 -0.9177 0.0866, 0.9078 -0.9149 0.0866, 0.9116 -0.9116 0.0866, 0.915 -0.9078 0.0866, 0.9178 -0.9036 0.0866, 0.92 -0.899 0.0866, 0.9216 -0.8942 0.0866, 0.9229 -0.8841 0.0866, -0.9258 -0.9645 0.3228, -0.8703 -0.909 0.6378, -0.8804 -0.9077 0.6378, -0.9359 -0.9632 0.3228, -0.8852 -0.9061 0.6378, -0.9407 -0.9616 0.3228, -0.8897 -0.9039 0.6378, -0.9453 -0.9594 0.3228, -0.8939 -0.9011 0.6378, -0.9495 -0.9566 0.3228, -0.8977 -0.8977 0.6378, -0.9533 -0.9533 0.3228, -0.9566 -0.9495 0.3228, -0.9011 -0.8939 0.6378, -0.9594 -0.9453 0.3228, -0.9039 -0.8897 0.6378, -0.9616 -0.9407 0.3228, -0.9061 -0.8852 0.6378, -0.9633 -0.9359 0.3228, -0.9077 -0.8803 0.6378, -0.909 -0.8702 0.6378, -0.9646 -0.9258 0.3228, -0.9229 -0.8841 0.0866, -0.9216 -0.8942 0.0866, -0.92 -0.899 0.0866, -0.9178 -0.9036 0.0866, -0.915 -0.9078 0.0866, -0.9116 -0.9116 0.0866, -0.9078 -0.9149 0.0866, -0.9036 -0.9177 0.0866, -0.8991 -0.92 0.0866, -0.8943 -0.9216 0.0866, -0.8841 -0.9229 0.0866
            ]
        }
        coordIndex [
            0,1,2,-1,2,1,3,-1,4,5,3,-1,3,5,6,-1,3,6,2,-1,4,7,5,-1,5,7,8,-1,5,8,9,-1,9,8,10,-1,10,8,11,-1,10,11,12,-1,1,0,13,-1,13,0,14,-1,15,16,17,-1,15,17,18,-1,18,17,19,-1,18,19,20,-1,20,19,21,-1,20,21,22,-1,22,21,23,-1,22,23,24,-1,24,23,25,-1,24,25,26,-1,26,25,27,-1,27,25,28,-1,27,28,29,-1,29,28,30,-1,29,30,31,-1,31,30,32,-1,31,32,33,-1,32,34,33,-1,33,34,35,-1,33,35,36,-1,36,37,38,-1,36,38,33,-1,33,38,39,-1,33,39,31,-1,31,39,40,-1,31,40,29,-1,29,40,41,-1,29,41,27,-1,27,41,42,-1,27,42,26,-1,26,42,24,-1,24,42,43,-1,24,43,22,-1,22,43,44,-1,22,44,20,-1,20,44,45,-1,20,45,18,-1,45,46,18,-1,18,46,47,-1,18,47,15,-1,48,49,50,-1,48,50,51,-1,51,50,52,-1,51,52,53,-1,53,52,54,-1,53,54,55,-1,55,54,56,-1,55,56,57,-1,57,56,58,-1,57,58,59,-1,59,58,60,-1,60,58,61,-1,60,61,62,-1,62,61,63,-1,62,63,64,-1,64,63,65,-1,64,65,66,-1,65,67,66,-1,66,67,68,-1,66,68,69,-1,69,70,71,-1,69,71,66,-1,66,71,72,-1,66,72,64,-1,64,72,73,-1,64,73,62,-1,62,73,74,-1,62,74,60,-1,60,74,75,-1,60,75,59,-1,59,75,57,-1,57,75,76,-1,57,76,55,-1,55,76,77,-1,55,77,53,-1,53,77,78,-1,53,78,51,-1,78,79,51,-1,51,79,80,-1,51,80,48,-1,81,2,6,-1,81,6,82,-1,82,6,5,-1,82,5,83,-1,83,5,9,-1,83,9,84,-1,84,9,10,-1,84,10,85,-1,85,10,12,-1,85,12,86,-1,86,12,87,-1,87,12,11,-1,87,11,88,-1,88,11,8,-1,88,8,89,-1,89,8,7,-1,89,7,90,-1,7,4,90,-1,90,4,3,-1,90,3,91,-1,91,92,93,-1,91,93,90,-1,90,93,94,-1,90,94,89,-1,89,94,95,-1,89,95,88,-1,88,95,96,-1,88,96,87,-1,87,96,97,-1,87,97,86,-1,86,97,85,-1,85,97,98,-1,85,98,84,-1,84,98,99,-1,84,99,83,-1,83,99,100,-1,83,100,82,-1,100,101,82,-1,82,101,102,-1,82,102,81,-1,103,104,105,-1,103,105,106,-1,106,105,107,-1,106,107,108,-1,108,107,109,-1,108,109,110,-1,110,109,111,-1,110,111,112,-1,112,111,113,-1,112,113,114,-1,114,113,115,-1,115,113,116,-1,115,116,117,-1,117,116,118,-1,117,118,119,-1,119,118,120,-1,119,120,121,-1,120,122,121,-1,121,122,123,-1,121,123,124,-1,124,125,126,-1,124,126,121,-1,121,126,127,-1,121,127,119,-1,119,127,128,-1,119,128,117,-1,117,128,129,-1,117,129,115,-1,115,129,130,-1,115,130,114,-1,114,130,112,-1,112,130,131,-1,112,131,110,-1,110,131,132,-1,110,132,108,-1,108,132,133,-1,108,133,106,-1,133,134,106,-1,106,134,135,-1,106,135,103,-1,
        ]
    }
}
Shape{
    appearance Appearance {
        material  Material 	{
            diffuseColor 0.0 0.0 0.0
            specularColor 0.0 0.0 0.0
            ambientIntensity 0.0
            transparency 0.0
            shininess 0.5
        }
    }
    geometry IndexedFaceSet {
        ccw TRUE
        solid FALSE
        coord DEF co Coordinate {
            point [
                -0.2154 -0.0187 0.0079, -0.2154 -0.0187 0.0118, -0.2041 -0.0519 0.0079, -0.2041 -0.0519 0.0118, -0.2642 -0.0187 0.0079, -0.2642 -0.0187 0.0118, -0.2761 -0.0519 0.0079, -0.2761 -0.0519 0.0118, -0.2934 -0.0519 0.0079, -0.2934 -0.0519 0.0118, -0.2473 0.0662 0.0079, -0.2473 0.0662 0.0118, -0.2315 0.0662 0.0079, -0.2315 0.0662 0.0118, -0.1868 -0.0519 0.0079, -0.1868 -0.0519 0.0118, -0.2194 -0.0058 0.0118, -0.237 0.0436 0.0118, -0.2401 0.0477 0.0118, -0.2389 0.0518 0.0118, -0.2381 0.0477 0.0118, -0.2589 -0.0058 0.0118, -0.2411 0.0436 0.0118, -0.2194 -0.0058 0.0079, -0.237 0.0436 0.0079, -0.2589 -0.0058 0.0079, -0.2411 0.0436 0.0079, -0.2401 0.0477 0.0079, -0.2389 0.0518 0.0079, -0.2381 0.0477 0.0079, -0.0831 -0.0519 0.0079, -0.0831 -0.0519 0.0118, -0.0831 0.0662 0.0079, -0.0831 0.0662 0.0118, -0.1152 -0.0519 0.0079, -0.1152 -0.0519 0.0118, -0.1782 0.0087 0.0079, -0.1782 0.0087 0.0118, -0.1764 0.0016 0.0118, -0.1764 0.0016 0.0079, -0.1671 -0.0249 0.0118, -0.1671 -0.0249 0.0079, -0.1607 -0.0346 0.0118, -0.1607 -0.0346 0.0079, -0.1545 -0.0404 0.0118, -0.1545 -0.0404 0.0079, -0.1463 -0.0448 0.0118, -0.1463 -0.0448 0.0079, -0.1343 -0.0485 0.0118, -0.1343 -0.0485 0.0079, -0.1165 0.0662 0.0079, -0.1165 0.0662 0.0118, -0.1246 0.0646 0.0118, -0.1246 0.0646 0.0079, -0.1499 0.0572 0.0118, -0.1499 0.0572 0.0079, -0.1595 0.0515 0.0118, -0.1595 0.0515 0.0079, -0.1653 0.0457 0.0118, -0.1653 0.0457 0.0079, -0.17 0.0381 0.0118, -0.17 0.0381 0.0079, -0.1741 0.0268 0.0118, -0.1741 0.0268 0.0079, -0.1584 0.0243 0.0118, -0.1623 0.0083 0.0118, -0.1601 -0.0059 0.0118, -0.1576 -0.0149 0.0118, -0.1545 -0.0211 0.0118, -0.1506 -0.0256 0.0118, -0.1444 -0.03 0.0118, -0.1323 -0.0349 0.0118, -0.1536 0.036 0.0118, -0.1493 0.042 0.0118, -0.145 0.0457 0.0118, -0.139 0.0487 0.0118, -0.1302 0.0512 0.0118, -0.1164 0.0533 0.0118, -0.099 0.0533 0.0118, -0.099 -0.0389 0.0118, -0.1157 -0.0389 0.0118, -0.1623 0.0083 0.0079, -0.1584 0.0243 0.0079, -0.1536 0.036 0.0079, -0.1493 0.042 0.0079, -0.145 0.0457 0.0079, -0.139 0.0487 0.0079, -0.1302 0.0512 0.0079, -0.1164 0.0533 0.0079, -0.099 0.0533 0.0079, -0.099 -0.0389 0.0079, -0.1157 -0.0389 0.0079, -0.1323 -0.0349 0.0079, -0.1444 -0.03 0.0079, -0.1506 -0.0256 0.0079, -0.1545 -0.0211 0.0079, -0.1576 -0.0149 0.0079, -0.1601 -0.0059 0.0079, -0.0543 0.0144 0.0079, -0.0543 0.0144 0.0118, -0.0543 0.0014 0.0079, -0.0543 0.0014 0.0118, -0.0125 0.0144 0.0079, -0.0125 0.0144 0.0118, -0.0125 0.0533 0.0079, -0.0125 0.0533 0.0118, -0.0572 0.0533 0.0079, -0.0572 0.0533 0.0118, -0.0572 0.0662 0.0079, -0.0572 0.0662 0.0118, 0.0033 0.0662 0.0079, 0.0033 0.0662 0.0118, 0.0033 -0.0519 0.0079, 0.0033 -0.0519 0.0118, -0.0601 -0.0519 0.0079, -0.0601 -0.0519 0.0118, -0.0601 -0.0389 0.0079, -0.0601 -0.0389 0.0118, -0.0125 -0.0389 0.0079, -0.0125 -0.0389 0.0118, -0.0125 0.0014 0.0079, -0.0125 0.0014 0.0118, 0.0263 0.0472 0.0079, 0.0263 0.0472 0.0118, 0.0397 0.0529 0.0118, 0.0397 0.0529 0.0079, 0.054 0.0547 0.0118, 0.054 0.0547 0.0079, 0.0263 0.063 0.0079, 0.0263 0.063 0.0118, 0.0541 0.0677 0.0079, 0.0541 0.0677 0.0118, 0.04 0.0667 0.0118, 0.04 0.0667 0.0079, 0.1142 0.005 0.0079, 0.1142 0.005 0.0118, 0.1128 0.0117 0.0118, 0.1128 0.0117 0.0079, 0.1045 0.0388 0.0118, 0.1045 0.0388 0.0079, 0.0985 0.0487 0.0118, 0.0985 0.0487 0.0079, 0.0925 0.0547 0.0118, 0.0925 0.0547 0.0079, 0.0846 0.0595 0.0118, 0.0846 0.0595 0.0079, 0.0729 0.0636 0.0118, 0.0729 0.0636 0.0079, 0.0616 -0.0526 0.0079, 0.0588 -0.0533 0.0079, 0.0588 -0.0533 0.0118, 0.0682 -0.0509 0.0079, 0.0682 -0.0509 0.0118, 0.0905 -0.0427 0.0118, 0.0905 -0.0427 0.0079, 0.0991 -0.0369 0.0118, 0.0991 -0.0369 0.0079, 0.1042 -0.0311 0.0118, 0.1042 -0.0311 0.0079, 0.1081 -0.0236 0.0118, 0.1081 -0.0236 0.0079, 0.1114 -0.0125 0.0118, 0.1114 -0.0125 0.0079, 0.0421 -0.0516 0.0079, 0.0263 -0.0457 0.0079, 0.0421 -0.0516 0.0118, 0.0263 -0.0457 0.0118, 0.0516 -0.0526 0.0079, 0.0263 -0.0328 0.0079, 0.0263 -0.0328 0.0118, 0.0567 -0.0403 0.0079, 0.0567 -0.0403 0.0118, 0.041 -0.0386 0.0118, 0.041 -0.0386 0.0079, 0.0984 0.0059 0.0079, 0.0984 0.0059 0.0118, 0.0956 -0.0084 0.0118, 0.0956 -0.0084 0.0079, 0.0914 -0.0208 0.0118, 0.0914 -0.0208 0.0079, 0.0874 -0.0272 0.0118, 0.0874 -0.0272 0.0079, 0.0838 -0.0308 0.0118, 0.0838 -0.0308 0.0079, 0.0782 -0.0342 0.0118, 0.0782 -0.0342 0.0079, 0.0699 -0.0373 0.0118, 0.0699 -0.0373 0.0079, 0.0599 0.053 0.0118, 0.0599 0.053 0.0079, 0.0793 0.0456 0.0118, 0.0793 0.0456 0.0079, 0.0864 0.0406 0.0118, 0.0864 0.0406 0.0079, 0.0905 0.0358 0.0118, 0.0905 0.0358 0.0079, 0.0937 0.0295 0.0118, 0.0937 0.0295 0.0079, 0.0963 0.0204 0.0118, 0.0963 0.0204 0.0079, 0.1848 -0.0519 0.0079, 0.1848 -0.0519 0.0118, 0.1848 0.0662 0.0079, 0.1848 0.0662 0.0118, 0.1243 -0.0519 0.0079, 0.1243 -0.0519 0.0118, 0.1243 -0.0389 0.0079, 0.1243 -0.0389 0.0118, 0.1689 -0.0389 0.0079, 0.1689 -0.0389 0.0118, 0.1689 0.0662 0.0079, 0.1689 0.0662 0.0118
            ]
        }
        coordIndex [
            0,1,2,-1,2,1,3,-1,4,5,0,-1,0,5,1,-1,6,7,4,-1,4,7,5,-1,8,9,6,-1,6,9,7,-1,10,11,8,-1,8,11,9,-1,12,13,10,-1,10,13,11,-1,14,15,12,-1,12,15,13,-1,14,2,15,-1,15,2,3,-1,16,17,13,-1,15,3,1,-1,18,11,19,-1,19,11,13,-1,19,13,20,-1,20,13,17,-1,13,15,16,-1,16,15,1,-1,16,1,21,-1,21,1,5,-1,18,22,11,-1,11,22,21,-1,11,21,9,-1,9,21,5,-1,9,5,7,-1,16,23,17,-1,17,23,24,-1,21,25,16,-1,16,25,23,-1,22,26,21,-1,21,26,25,-1,26,22,18,-1,26,18,27,-1,27,18,19,-1,27,19,28,-1,28,19,20,-1,28,20,29,-1,29,20,17,-1,29,17,24,-1,30,31,32,-1,32,31,33,-1,34,35,30,-1,30,35,31,-1,36,37,38,-1,36,38,39,-1,39,38,40,-1,39,40,41,-1,41,40,42,-1,41,42,43,-1,43,42,44,-1,43,44,45,-1,45,44,46,-1,45,46,47,-1,47,46,48,-1,47,48,49,-1,49,48,35,-1,49,35,34,-1,50,51,52,-1,50,52,53,-1,53,52,54,-1,53,54,55,-1,55,54,56,-1,55,56,57,-1,57,56,58,-1,57,58,59,-1,59,58,60,-1,59,60,61,-1,61,60,62,-1,61,62,63,-1,63,62,37,-1,63,37,36,-1,50,32,51,-1,51,32,33,-1,64,65,37,-1,37,65,38,-1,38,65,66,-1,38,66,40,-1,66,67,40,-1,40,67,68,-1,40,68,42,-1,42,68,69,-1,42,69,44,-1,44,69,70,-1,44,70,46,-1,46,70,71,-1,37,62,64,-1,64,62,60,-1,64,60,72,-1,72,60,58,-1,72,58,73,-1,73,58,56,-1,73,56,74,-1,74,56,54,-1,74,54,75,-1,75,54,76,-1,76,54,52,-1,76,52,77,-1,77,52,51,-1,77,51,78,-1,78,51,33,-1,78,33,79,-1,79,33,31,-1,79,31,80,-1,80,31,35,-1,80,35,71,-1,71,35,48,-1,71,48,46,-1,81,65,64,-1,81,64,82,-1,82,64,72,-1,82,72,83,-1,83,72,73,-1,83,73,84,-1,84,73,74,-1,84,74,85,-1,85,74,75,-1,85,75,86,-1,86,75,76,-1,86,76,87,-1,87,76,77,-1,87,77,88,-1,78,89,77,-1,77,89,88,-1,79,90,78,-1,78,90,89,-1,80,91,79,-1,79,91,90,-1,91,80,71,-1,91,71,92,-1,92,71,70,-1,92,70,93,-1,93,70,69,-1,93,69,94,-1,94,69,68,-1,94,68,95,-1,95,68,67,-1,95,67,96,-1,96,67,66,-1,96,66,97,-1,97,66,65,-1,97,65,81,-1,98,99,100,-1,100,99,101,-1,102,103,98,-1,98,103,99,-1,104,105,102,-1,102,105,103,-1,106,107,104,-1,104,107,105,-1,108,109,106,-1,106,109,107,-1,110,111,108,-1,108,111,109,-1,112,113,110,-1,110,113,111,-1,114,115,112,-1,112,115,113,-1,116,117,114,-1,114,117,115,-1,118,119,116,-1,116,119,117,-1,120,121,118,-1,118,121,119,-1,120,100,121,-1,121,100,101,-1,113,115,117,-1,117,119,113,-1,113,119,121,-1,113,121,111,-1,107,109,105,-1,105,109,111,-1,105,111,103,-1,103,111,121,-1,103,121,99,-1,99,121,101,-1,122,123,124,-1,122,124,125,-1,125,124,126,-1,125,126,127,-1,128,129,122,-1,122,129,123,-1,130,131,132,-1,130,132,133,-1,133,132,129,-1,133,129,128,-1,134,135,136,-1,134,136,137,-1,137,136,138,-1,137,138,139,-1,139,138,140,-1,139,140,141,-1,141,140,142,-1,141,142,143,-1,143,142,144,-1,143,144,145,-1,145,144,146,-1,145,146,147,-1,147,146,131,-1,147,131,130,-1,148,149,150,-1,148,150,151,-1,150,152,151,-1,151,152,153,-1,151,153,154,-1,154,153,155,-1,154,155,156,-1,156,155,157,-1,156,157,158,-1,158,157,159,-1,158,159,160,-1,160,159,161,-1,160,161,162,-1,162,161,135,-1,162,135,134,-1,163,164,165,-1,165,164,166,-1,163,165,167,-1,167,165,150,-1,167,150,149,-1,168,169,164,-1,164,169,166,-1,170,171,172,-1,170,172,173,-1,173,172,169,-1,173,169,168,-1,174,175,176,-1,174,176,177,-1,177,176,178,-1,177,178,179,-1,179,178,180,-1,179,180,181,-1,181,180,182,-1,181,182,183,-1,183,182,184,-1,183,184,185,-1,185,184,186,-1,185,186,187,-1,187,186,171,-1,187,171,170,-1,127,126,188,-1,127,188,189,-1,189,188,190,-1,189,190,191,-1,191,190,192,-1,191,192,193,-1,193,192,194,-1,193,194,195,-1,195,194,196,-1,195,196,197,-1,197,196,198,-1,197,198,199,-1,199,198,175,-1,199,175,174,-1,123,129,124,-1,124,129,132,-1,124,132,126,-1,126,132,131,-1,126,131,188,-1,188,131,146,-1,188,146,190,-1,176,159,178,-1,178,159,157,-1,178,157,180,-1,180,157,155,-1,180,155,182,-1,182,155,153,-1,146,144,190,-1,190,144,142,-1,190,142,192,-1,192,142,140,-1,192,140,194,-1,194,140,138,-1,194,138,196,-1,166,169,165,-1,165,169,172,-1,165,172,150,-1,150,172,171,-1,150,171,152,-1,152,171,186,-1,152,186,153,-1,153,186,184,-1,153,184,182,-1,196,138,198,-1,198,138,136,-1,198,136,175,-1,175,136,135,-1,175,135,176,-1,176,135,161,-1,176,161,159,-1,200,201,202,-1,202,201,203,-1,204,205,200,-1,200,205,201,-1,206,207,204,-1,204,207,205,-1,208,209,206,-1,206,209,207,-1,210,211,208,-1,208,211,209,-1,210,202,211,-1,211,202,203,-1,211,203,209,-1,209,203,201,-1,209,201,207,-1,207,201,205,-1,
        ]
    }
}
Shape{
    appearance Appearance {
        material  Material 	{
            diffuseColor 1.0 1.0 1.0
            specularColor 0.5019607843137255 0.5019607843137255 0.5019607843137255
            ambientIntensity 1.0
            transparency 0.0
            shininess 0.5
        }
    }
    geometry IndexedFaceSet {
        ccw TRUE
        solid FALSE
        coord DEF co Coordinate {
            point [
                -0.2194 -0.0058 0.0079, -0.2589 -0.0058 0.0079, -0.237 0.0436 0.0079, -0.2411 0.0436 0.0079, -0.2381 0.0477 0.0079, -0.2401 0.0477 0.0079, -0.2389 0.0518 0.0079, -0.1164 0.0533 0.0079, -0.099 0.0533 0.0079, -0.1601 -0.0059 0.0079, -0.1576 -0.0149 0.0079, -0.139 0.0487 0.0079, -0.1302 0.0512 0.0079, -0.1584 0.0243 0.0079, -0.1623 0.0083 0.0079, -0.099 -0.0389 0.0079, -0.1157 -0.0389 0.0079, -0.1323 -0.0349 0.0079, -0.1444 -0.03 0.0079, -0.1506 -0.0256 0.0079, -0.1545 -0.0211 0.0079, -0.145 0.0457 0.0079, -0.1536 0.036 0.0079, -0.1493 0.042 0.0079
            ]
        }
        coordIndex [
            0,1,2,-1,2,1,3,-1,2,3,4,-1,4,3,5,-1,4,5,6,-1,7,8,9,-1,9,8,10,-1,11,12,13,-1,7,9,12,-1,12,9,14,-1,12,14,13,-1,15,16,8,-1,8,16,17,-1,8,17,18,-1,18,19,8,-1,8,19,20,-1,8,20,10,-1,11,13,21,-1,21,13,22,-1,21,22,23,-1,
        ]
    }
}